<?xml version="1.0" standalone="no"?>
<!DOCTYPE svg PUBLIC "-//W3C//DTD SVG 20010904//EN"
 "http://www.w3.org/TR/2001/REC-SVG-20010904/DTD/svg10.dtd">
<svg version="1.0" xmlns="http://www.w3.org/2000/svg"
 width="688.000000pt" height="445.000000pt" viewBox="0 0 688.000000 445.000000"
 preserveAspectRatio="xMidYMid meet">

<g transform="translate(0.000000,445.000000) scale(0.100000,-0.100000)"
fill="#000000" stroke="none">
<path d="M2576 3651 c-44 -30 -65 -71 -81 -162 -22 -124 -205 -1286 -205
-1299 0 -7 75 -10 225 -10 131 0 225 4 225 9 0 12 218 1418 226 1454 l6 27
-184 0 c-163 0 -186 -2 -212 -19z"/>
<path d="M3830 3647 c-19 -12 -42 -36 -51 -52 -12 -20 -51 -243 -123 -700 -58
-368 -108 -680 -111 -692 l-5 -23 225 0 225 0 5 23 c8 33 225 1434 225 1452 0
13 -26 15 -179 15 -168 0 -180 -1 -211 -23z"/>
<path d="M3054 2670 c-64 -32 -80 -74 -109 -287 -14 -100 -25 -187 -25 -193 0
-6 76 -10 225 -10 124 0 225 3 225 7 0 14 60 459 65 481 l5 22 -172 0 c-154 0
-178 -2 -214 -20z"/>
<path d="M4320 2679 c-70 -28 -85 -64 -115 -271 -13 -95 -27 -185 -30 -201
l-5 -27 228 2 227 3 32 235 c17 129 32 243 32 253 1 16 -13 17 -171 16 -95 0
-184 -5 -198 -10z"/>
<path d="M1020 1774 c0 -4 19 -65 42 -135 l41 -129 79 0 c43 0 78 3 78 6 0 4
-19 65 -42 135 l-41 129 -79 0 c-43 0 -78 -3 -78 -6z"/>
<path d="M1630 1771 c0 -5 7 -25 15 -44 8 -20 15 -39 15 -42 0 -3 -72 -5 -160
-5 l-160 0 0 -50 0 -50 59 0 59 0 -49 -127 c-27 -70 -49 -138 -49 -151 0 -12
11 -34 25 -47 l24 -25 313 0 c363 0 358 -1 357 78 0 26 -13 81 -28 122 l-28
75 -76 3 -76 3 26 -76 c14 -41 22 -82 19 -90 -8 -21 -374 -22 -382 -2 -2 7 13
62 34 123 l40 109 251 3 251 2 0 50 0 50 -149 0 -149 0 -18 50 -18 50 -73 0
c-40 0 -73 -4 -73 -9z"/>
<path d="M2330 1773 c0 -5 20 -60 44 -123 l44 -115 76 -3 c42 -2 76 1 76 5 0
4 -20 60 -44 123 l-43 115 -77 3 c-42 2 -76 -1 -76 -5z"/>
<path d="M2850 1712 l-35 -67 -87 -3 -88 -3 0 -49 0 -50 60 0 c33 0 60 -2 60
-5 0 -3 -22 -50 -50 -105 -38 -76 -50 -111 -50 -145 l0 -45 135 0 135 0 0 -70
0 -70 -160 0 -160 0 0 -50 0 -50 160 0 160 0 0 -80 0 -80 75 0 75 0 0 80 0 80
145 0 145 0 0 50 0 50 -145 0 -145 0 0 70 0 70 135 0 135 0 0 50 0 50 -135 0
-135 0 0 70 0 70 -75 0 -75 0 0 -70 0 -70 -45 0 c-25 0 -45 3 -45 8 0 4 19 48
42 99 l43 92 208 1 207 0 0 50 0 50 -181 0 -180 0 7 23 c3 12 17 43 30 70 l24
47 -77 0 -78 0 -35 -68z"/>
<path d="M4000 1720 l0 -60 -209 0 c-206 0 -210 0 -225 -22 -24 -33 -24 -623
0 -656 15 -22 19 -22 225 -22 l209 0 0 -124 c0 -100 3 -128 16 -140 13 -14 53
-16 287 -16 l272 0 26 50 27 50 -228 0 c-170 0 -230 3 -237 13 -6 6 -11 47
-12 90 l-2 77 213 0 c153 0 217 3 226 12 9 9 12 98 12 340 0 313 -1 328 -19
338 -12 6 -103 10 -225 10 l-206 0 0 60 0 60 -75 0 -75 0 0 -60z m0 -260 l0
-100 -145 0 -145 0 0 93 c0 52 3 97 7 100 3 4 69 7 145 7 l138 0 0 -100z m448
-2 l3 -98 -151 0 -150 0 0 100 0 101 148 -3 147 -3 3 -97z m-448 -298 l0 -100
-145 0 -145 0 0 100 0 100 145 0 145 0 0 -100z m450 0 l0 -100 -150 0 -150 0
0 100 0 100 150 0 150 0 0 -100z"/>
<path d="M5246 1755 l6 -25 -231 0 -231 0 0 -50 0 -50 545 0 545 0 0 50 0 50
-239 0 -239 0 -6 25 c-6 24 -10 25 -81 25 l-75 0 6 -25z"/>
<path d="M5055 1560 l7 -50 -95 0 c-78 0 -97 -3 -110 -18 -15 -17 -17 -60 -17
-415 l0 -397 75 0 75 0 0 365 0 365 350 0 350 0 -2 -312 -3 -313 -73 -3 c-58
-2 -73 -6 -68 -17 2 -7 8 -30 12 -49 l6 -36 119 0 c175 0 159 -41 159 418 0
354 -1 380 -18 395 -15 13 -39 17 -115 17 l-96 0 5 33 c3 17 7 40 9 50 3 15
-6 17 -80 17 l-82 0 -7 -50 -7 -50 -110 0 c-79 0 -111 3 -114 13 -2 6 -6 29
-10 50 l-6 37 -80 0 -81 0 7 -50z"/>
<path d="M2270 1430 l0 -49 63 -3 62 -3 0 -245 0 -245 -28 -58 c-16 -32 -44
-78 -63 -102 l-34 -45 83 0 82 0 24 35 c13 19 28 35 32 35 5 0 35 -15 67 -32
l57 -33 366 -3 366 -3 12 45 c6 25 11 50 11 55 0 8 -116 11 -367 11 l-368 0
-44 28 -44 28 2 298 c2 270 1 300 -15 317 -15 17 -32 19 -141 19 l-123 0 0
-50z"/>
<path d="M1032 1438 c25 -64 78 -243 78 -261 0 -13 -20 -124 -45 -247 -25
-123 -45 -227 -45 -232 0 -4 36 -8 80 -8 44 0 80 1 80 3 0 2 20 104 45 227 25
123 45 238 45 254 0 17 -18 85 -39 151 l-38 120 -83 3 c-64 2 -81 0 -78 -10z"/>
<path d="M5061 1294 c-28 -47 -51 -88 -51 -90 0 -2 10 -4 23 -4 l22 0 -3 -169
c-4 -231 -31 -211 287 -211 l250 0 21 27 c20 26 21 36 18 190 l-3 162 26 3 27
3 -52 88 -51 87 -78 0 -79 0 27 -47 c15 -27 36 -63 47 -80 l20 -33 -166 0
c-91 0 -166 3 -166 6 0 3 18 36 40 73 22 37 40 70 40 74 0 4 -33 7 -74 7 l-75
0 -50 -86z m417 -254 c5 -128 13 -121 -141 -118 l-132 3 -3 84 c-2 46 -1 90 2
98 4 11 34 13 138 11 l133 -3 3 -75z"/>
<path d="M1377 1008 c-4 -95 -13 -204 -22 -243 -8 -38 -15 -71 -15 -73 0 -2
32 -2 72 0 l71 3 13 36 c19 56 34 201 34 332 l0 117 -73 0 -74 0 -6 -172z"/>
<path d="M1640 935 l0 -245 75 0 75 0 0 245 0 245 -75 0 -75 0 0 -245z"/>
<path d="M1910 952 c0 -272 -4 -262 107 -262 l71 0 6 36 c4 19 10 42 13 50 4
10 -2 14 -21 14 l-26 0 0 195 0 195 -75 0 -75 0 0 -228z"/>
</g>
</svg>
